HIERARCHY
ROOT Hips
{
	OFFSET	0.00	0.00	0.00
	CHANNELS 6 Xposition Yposition Zposition Zrotation Xrotation Yrotation
	JOINT LeftUpLeg
	{
		OFFSET	 0.126116	-0.014019	-0.065224
		CHANNELS 3 Zrotation Xrotation Yrotation
		JOINT LeftLeg
		{
			OFFSET	 0.000000	 0.000000	 0.569914
			CHANNELS 3 Zrotation Xrotation Yrotation
			JOINT LeftFoot
			{
				OFFSET	 0.000000	 0.000000	 0.544423
				CHANNELS 3 Zrotation Xrotation Yrotation
				JOINT LeftToeBase
				{
					OFFSET	 0.000000	 0.000000	 0.207117
					CHANNELS 3 Zrotation Xrotation Yrotation
					End Site
					{
						OFFSET	 0.000000	 0.000000	 0.207117
					}
				}
			}
		}
	}
	JOINT RightUpLeg
	{
		OFFSET	-0.124023	-0.008373	-0.065224
		CHANNELS 3 Zrotation Xrotation Yrotation
		JOINT RightLeg
		{
			OFFSET	 0.000000	 0.000000	 0.570047
			CHANNELS 3 Zrotation Xrotation Yrotation
			JOINT RightFoot
			{
				OFFSET	 0.000000	 0.000000	 0.544354
				CHANNELS 3 Zrotation Xrotation Yrotation
				JOINT RightToeBase
				{
					OFFSET	 0.000000	 0.000000	 0.207540
					CHANNELS 3 Zrotation Xrotation Yrotation
					End Site
					{
						OFFSET	 0.000000	 0.000000	 0.207540
					}
				}
			}
		}
	}
	JOINT Spine
	{
		OFFSET	 0.000184	-0.007763	 0.117403
		CHANNELS 3 Zrotation Xrotation Yrotation
		JOINT Spine1
		{
			OFFSET	 0.000000	 0.000000	 0.137269
			CHANNELS 3 Zrotation Xrotation Yrotation
			JOINT Spine2
			{
				OFFSET	 0.000000	 0.000000	 0.156879
				CHANNELS 3 Zrotation Xrotation Yrotation
				JOINT LeftShoulder
				{
					OFFSET	 0.080501	-0.002496	 0.160144
					CHANNELS 3 Zrotation Xrotation Yrotation
					JOINT LeftArm
					{
						OFFSET	 0.000000	 0.000000	 0.164363
						CHANNELS 3 Zrotation Xrotation Yrotation
						JOINT LeftForeArm
						{
							OFFSET	 0.000000	 0.000000	 0.364576
							CHANNELS 3 Zrotation Xrotation Yrotation
							JOINT LeftHand
							{
								OFFSET	 0.000000	 0.000000	 0.360812
								CHANNELS 3 Zrotation Xrotation Yrotation
								JOINT LeftHandIndex1
								{
									OFFSET	 0.000000	 0.000000	 0.086006
									CHANNELS 3 Zrotation Xrotation Yrotation
									JOINT LeftHandIndex2
									{
										OFFSET	 0.000000	 0.000000	 0.047236
										CHANNELS 3 Zrotation Xrotation Yrotation
										JOINT LeftHandIndex3
										{
											OFFSET	-0.004284	-0.000551	 0.038166
											CHANNELS 3 Zrotation Xrotation Yrotation
											End Site
											{
												OFFSET	-0.004284	-0.000551	 0.038166
											}
										}
									}
								}
							}
						}
					}
				}
				JOINT Neck
				{
					OFFSET	 0.000000	 0.000000	 0.176489
					CHANNELS 3 Zrotation Xrotation Yrotation
					JOINT Head
					{
						OFFSET	 0.000000	-0.001747	 0.077940
						CHANNELS 3 Zrotation Xrotation Yrotation
						End Site
						{
							OFFSET	 0.000000	-0.001747	 0.077940
						}
					}
				}
				JOINT RightShoulder
				{
					OFFSET	-0.080363	 0.000306	 0.159706
					CHANNELS 3 Zrotation Xrotation Yrotation
					JOINT RightArm
					{
						OFFSET	 0.000000	 0.000000	 0.164196
						CHANNELS 3 Zrotation Xrotation Yrotation
						JOINT RightForeArm
						{
							OFFSET	 0.000000	 0.000000	 0.365611
							CHANNELS 3 Zrotation Xrotation Yrotation
							JOINT RightHand
							{
								OFFSET	 0.000000	 0.000000	 0.360648
								CHANNELS 3 Zrotation Xrotation Yrotation
								JOINT RightHandIndex1
								{
									OFFSET	 0.000000	 0.000000	 0.069977
									CHANNELS 3 Zrotation Xrotation Yrotation
									JOINT RightHandIndex2
									{
										OFFSET	 0.000000	 0.000000	 0.052305
										CHANNELS 3 Zrotation Xrotation Yrotation
										JOINT RightHandIndex3
										{
											OFFSET	 0.009002	-0.000782	 0.042196
											CHANNELS 3 Zrotation Xrotation Yrotation
											End Site
											{
												OFFSET	 0.009002	-0.000782	 0.042196
											}
										}
									}
								}
							}
						}
					}
				}
			}
		}
	}
}
MOTION
Frames:    6
Frame Time: 0.03333334
-0.036044	 0.287662	 0.965528	 3.036583	 33.364770	-7.889257	 86.533180	-82.792600	-99.941180	 10.285190	-78.482580	 10.491080	 62.458990	 80.147950	-69.453390	-2.385832	 28.452790	-0.000001	 110.077500	-82.353530	-69.228860	-29.243900	-81.890080	-23.883710	-9.780631	 82.191760	 30.046360	 2.384659	 28.388700	-0.000001	-3.147905	 15.513480	 0.350603	-1.755432	 22.925030	 0.880607	-5.311116	-1.432915	 3.897422	-98.997400	 68.250020	 157.225400	 3.488370	-8.177228	-48.372830	-25.489540	 3.108907	-9.431103	-24.106980	-19.699020	-18.263160	-2.027600	 6.559038	 9.033609	-5.188889	 0.308190	 3.541030	-5.234859	 0.342567	 0.430617	 0.009649	 15.531750	-5.152966	-4.449987	-24.583990	-3.074305	 97.327980	 64.552090	-159.549400	-8.451068	 5.530547	 62.092390	 9.023597	 8.711029	 27.513690	 8.105422	-18.523120	 14.331420	 1.803333	 3.979147	-15.098590	 4.898592	 3.004813	-9.310344	 5.224449	 0.395017	 2.014677
-0.035031	 0.284828	 0.979980	 2.756819	 32.045060	-7.189026	 66.397450	-82.196840	-120.328000	 8.647755	-76.791980	 8.828347	 59.012460	 80.258600	-65.758290	-2.385832	 28.452790	-0.000001	 87.537600	-83.991780	-91.209820	-25.603820	-80.147810	-20.180340	-10.043440	 81.968670	 30.113720	 2.384659	 28.388700	-0.000001	-1.379567	 15.534700	 0.191469	-1.307019	 23.700050	 0.364297	-5.418827	-2.930507	 3.439180	-98.338750	 68.958080	 158.216400	 3.685552	-5.413373	-49.914630	-24.895060	 3.064230	-9.373682	-24.976060	-20.278670	-19.259290	-2.027600	 6.559038	 9.033609	-5.188889	 0.308190	 3.541030	-5.234859	 0.342567	 0.430617	-0.610738	 9.948827	-3.823481	-4.665852	-19.049990	-3.257409	 96.995250	 64.092160	-160.810100	-9.416008	 5.367067	 61.822930	 9.157570	 9.428978	 29.432980	 7.879328	-18.415000	 15.838910	 1.803333	 3.979147	-15.098590	 4.898592	 3.004813	-9.310344	 5.224449	 0.395017	 2.014677
-0.033036	 0.282102	 0.999279	 2.292016	 30.138780	-6.164562	 46.246050	-80.148250	-140.927600	 7.242940	-74.461690	 7.382689	 54.504010	 80.348240	-60.975800	-2.385833	 28.452760	 0.000004	 45.706780	-83.863010	-132.352300	-22.618020	-77.642170	-17.090770	-10.091550	 81.751000	 29.909720	 2.384659	 28.388700	-0.000001	 0.661757	 15.674270	-0.001020	-0.866096	 24.469460	-0.158065	-5.563176	-4.990493	 2.817723	-96.864850	 71.168950	 159.481200	 4.765879	-0.469208	-52.066720	-23.969340	 2.986037	-9.269945	-26.227500	-21.108280	-21.185930	-2.027600	 6.559038	 9.033609	-5.188889	 0.308190	 3.541030	-5.234859	 0.342567	 0.430617	-1.086297	 1.680566	-2.375388	-4.895820	-11.011780	-3.443911	 96.354010	 64.832620	-161.831500	-10.975130	 7.394230	 61.161850	 8.234101	 9.900244	 31.949610	 7.505946	-18.318950	 16.987320	 1.803333	 3.979147	-15.098590	 4.898592	 3.004813	-9.310344	 5.224449	 0.395017	 2.014677
-0.030146	 0.279185	 1.021034	 1.912914	 27.949200	-5.039659	 32.723140	-76.896790	-154.901000	 6.733773	-71.701760	 6.792231	 49.489620	 80.243350	-55.849540	-2.385833	 28.452750	 0.000004	 16.399510	-80.698340	-160.880100	-19.665070	-74.679890	-14.023570	-10.298780	 81.560920	 29.729710	 2.384659	 28.388700	-0.000001	 2.724964	 15.868380	-0.267319	-0.370519	 24.965520	-0.804436	-5.678598	-7.017519	 2.357970	-94.492700	 74.887660	 160.517900	 6.542696	 5.739762	-55.129730	-22.856540	 2.880221	-9.124754	-27.436000	-22.059700	-22.999200	-2.027600	 6.559038	 9.033609	-5.188889	 0.308190	 3.541030	-5.234859	 0.342567	 0.430617	-1.429158	-7.083757	-2.280270	-4.863139	-2.615338	-2.617393	 95.130320	 67.198020	-163.052400	-12.898370	 11.161610	 61.276530	 6.883403	 10.231690	 34.927060	 7.519005	-19.208770	 17.820430	 1.803333	 3.979147	-15.098590	 4.898592	 3.004813	-9.310344	 5.224449	 0.395017	 2.014677
-0.024768	 0.271919	 1.049727	 2.108826	 25.524880	-3.809007	 23.766010	-72.211610	-164.090600	 6.419166	-67.868890	 6.317583	 44.174560	 79.685680	-50.295610	-2.385833	 28.452750	 0.000004	 2.134402	-75.190180	-173.921700	-14.502030	-70.724260	-8.839795	-8.400993	 81.372130	 26.574540	 2.384659	 28.388700	-0.000001	 5.196569	 15.370900	-0.963621	-0.016559	 25.176420	-1.604798	-5.757732	-9.447592	 1.717251	-93.530810	 76.030270	 162.406000	 9.326680	 10.172270	-57.246530	-21.313080	 2.720395	-8.896666	-27.210050	-22.672400	-25.075920	-2.027600	 6.559038	 9.033609	-5.188889	 0.308190	 3.541030	-5.234859	 0.342567	 0.430617	-1.669257	-13.926870	-1.660924	-4.917472	 3.951164	-2.330198	 93.986840	 69.275220	-164.439800	-15.683510	 15.206550	 59.971640	 5.021544	 10.727860	 39.786000	 7.200515	-19.927200	 18.210120	 1.803333	 3.979147	-15.098590	 4.898592	 3.004813	-9.310344	 5.224449	 0.395017	 2.014677
-0.020320	 0.261548	 1.079020	 2.526645	 23.678090	-2.987703	 18.920670	-67.428420	-168.960700	 5.860210	-63.588460	 5.626044	 38.216780	 78.921390	-44.059480	-2.385833	 28.452750	 0.000004	-3.947514	-69.676070	-178.721600	-10.738510	-66.307200	-5.123506	-6.373050	 80.618480	 23.178260	 2.384659	 28.388700	-0.000001	 7.438605	 13.857340	-1.304569	 0.394895	 24.916910	-2.170578	-5.875942	-11.541390	 1.035124	-94.288590	 74.181500	 164.460600	 12.063270	 11.630430	-57.335710	-19.735190	 2.544033	-8.632818	-25.554160	-22.596190	-25.814660	-2.027600	 6.559038	 9.033609	-5.188889	 0.308190	 3.541030	-5.234859	 0.342567	 0.430617	-1.765669	-15.103070	-0.985093	-4.859068	 5.333366	-2.401493	 93.935950	 68.012410	-166.078900	-17.872770	 16.572010	 55.859130	 3.008633	 11.272030	 45.965640	 6.208230	-19.632050	 18.328360	 1.803333	 3.979147	-15.098590	 4.898592	 3.004813	-9.310344	 5.224449	 0.395017	 2.014677
